<svg id="Layer_1" data-name="Layer 1" xmlns="http://www.w3.org/2000/svg" viewBox="0 0 274.91 295.27"><defs><style>.cls-1,.cls-2,.cls-3{fill:none;stroke:#100084;stroke-width:3px;}.cls-1{stroke-linecap:round;}.cls-1,.cls-2{stroke-linejoin:round;}.cls-3{stroke-miterlimit:10;}</style></defs><title>re-volve-donate-3pt-blue</title><path class="cls-1" d="M139.37,137.16" transform="translate(-12.64 -1.66)"/><path class="cls-2" d="M210.23,212.57l48.85-25c9.44-5.07,20.52-3,25.09,5.47s.55,19.6-8.89,24.67L173.93,272.07l-5.36,1.34L74,276s-12.18,3.41-26.8,20" transform="translate(-12.64 -1.66)"/><path class="cls-3" d="M13.65,246.25l42.88-39.47c21-14.13,45.8-6.33,45.8-6.33,12,3.17,34.38,3.88,34.38,3.88h37.1c11.05,0,20.09,7.89,20.09,17.54s-9,17.54-20.09,17.54H122.49" transform="translate(-12.64 -1.66)"/><path class="cls-1" d="M97.62,27.1a26.27,26.27,0,0,0-9,5.89c-10.61,10.62-10.3,28.2.7,39.2" transform="translate(-12.64 -1.66)"/><path class="cls-1" d="M237.39,87.83c19.57-19.57,19.89-51.28.7-70.48s-50.91-18.87-70.48.7L155.49,30.1l-12.05-12C123.87-1.52,92.16-1.84,73,17.35s-18.87,50.91.7,70.48l81.85,81.74Z" transform="translate(-12.64 -1.66)"/></svg>