<svg id="Layer_1" data-name="Layer 1" xmlns="http://www.w3.org/2000/svg" viewBox="0 0 292.82 142.11"><defs><style>.cls-1,.cls-2{fill:none;stroke:#100084;stroke-linejoin:round;stroke-width:3px;}.cls-2{stroke-linecap:round;}</style></defs><title>re-volve-community-members-3pt-blue</title><path class="cls-1" d="M68.94,206.09H5.18V177.23A14.4,14.4,0,0,1,13.73,164a123.57,123.57,0,0,1,49.72-10.09c22.7,0,39.73,5.78,49.2,10" transform="translate(-3.68 -77.06)"/><path class="cls-2" d="M92.13,106.9c0,21.26-13,35.43-29,35.43s-29-14.17-29-35.43c0-15.65,13-28.34,29-28.34S92.13,91.25,92.13,106.9Z" transform="translate(-3.68 -77.06)"/><path class="cls-1" d="M187.62,164a123.57,123.57,0,0,1,49.72-10.09c22.7,0,39.74,5.78,49.2,10A14.44,14.44,0,0,1,295,177.15v28.94H231.24" transform="translate(-3.68 -77.06)"/><path class="cls-2" d="M266,106.9c0,21.26-13,35.43-29,35.43s-29-14.17-29-35.43c0-15.65,13-28.34,29-28.34S266,91.25,266,106.9Z" transform="translate(-3.68 -77.06)"/><path class="cls-2" d="M179.07,118.5c0,21.25-13,35.42-29,35.42s-29-14.17-29-35.42c0-15.66,13-28.34,29-28.34S179.07,102.84,179.07,118.5Z" transform="translate(-3.68 -77.06)"/><path class="cls-2" d="M92.13,217.68V188.83a14.43,14.43,0,0,1,8.55-13.23,123.75,123.75,0,0,1,49.72-10.09,120.46,120.46,0,0,1,49.19,10.05,14.39,14.39,0,0,1,8.46,13.18v28.94Z" transform="translate(-3.68 -77.06)"/></svg>