<svg id="Layer_1" data-name="Layer 1" xmlns="http://www.w3.org/2000/svg" viewBox="0 0 291 205.73"><defs><style>.cls-1,.cls-2{fill:none;stroke:#100084;stroke-width:3px;}.cls-1{stroke-linejoin:round;}.cls-2{stroke-miterlimit:10;}</style></defs><title>re-volve-solar-projects-funded-3pt-blue</title><polyline class="cls-1" points="142.09 57.24 118.92 37.47 118.86 37.47 37.07 110.72 37.07 204.23 97.74 204.23 97.74 151.03 140.04 151.03 140.04 204.23 200.71 204.23 200.71 167.94"/><polyline class="cls-2" points="0.99 104.61 37.77 72.4 37.77 19.33 63.36 19.33 63.36 50.13 118.56 1.98 155.04 32.86"/><path class="cls-2" d="M226.4,129.82c-15.49,0-28.07-6.33-28.07-14.15s12.58-14.16,28.07-14.16c13.16,0,24.19,4.55,27.25,10.72" transform="translate(-3.28 -44.46)"/><path class="cls-2" d="M226.4,129.86c15.51,0,28.08,6.34,28.08,14.16s-12.57,14.16-28.08,14.16c-13.85,0-25.38-5.07-27.66-11.73" transform="translate(-3.28 -44.46)"/><line class="cls-2" x1="223.51" y1="41.23" x2="223.51" y2="129.71"/><path class="cls-1" d="M292.79,129.93a66.39,66.39,0,1,1-66.4-66.36A66.37,66.37,0,0,1,292.79,129.93Z" transform="translate(-3.28 -44.46)"/></svg>