<?xml version="1.0" encoding="utf-8"?>
<!-- Generator: Adobe Illustrator 23.0.1, SVG Export Plug-In . SVG Version: 6.00 Build 0)  -->
<svg version="1.1" id="Layer_1" xmlns="http://www.w3.org/2000/svg" xmlns:xlink="http://www.w3.org/1999/xlink" x="0px" y="0px"
	 viewBox="0 0 300 300" style="enable-background:new 0 0 300 300;" xml:space="preserve">
<style type="text/css">
	.st0{fill:none;stroke:#41CECA;stroke-width:11;stroke-miterlimit:10;}
	.st1{fill:#FFFFFF;stroke:#41CECA;stroke-width:11;stroke-miterlimit:10;}
</style>
<g>
	<g>
		<polyline class="st0" points="215.3,244.6 274.3,244.6 274.3,88.2 215.3,88.2 		"/>
		<g>
			<line class="st0" x1="215.3" y1="107.7" x2="256.5" y2="107.7"/>
			<line class="st0" x1="215.3" y1="127.3" x2="256.5" y2="127.3"/>
			<line class="st0" x1="215.3" y1="146.9" x2="256.5" y2="146.9"/>
			<line class="st0" x1="215.3" y1="166.4" x2="256.5" y2="166.4"/>
			<line class="st0" x1="215.3" y1="186" x2="256.5" y2="186"/>
			<line class="st0" x1="215.3" y1="205.5" x2="256.5" y2="205.5"/>
		</g>
	</g>
	<g>
		<polyline class="st0" points="93.1,244.6 34,244.6 34,88.2 93.1,88.2 		"/>
		<g>
			<line class="st0" x1="93.1" y1="107.7" x2="51.8" y2="107.7"/>
			<line class="st0" x1="93.1" y1="127.3" x2="51.8" y2="127.3"/>
			<line class="st0" x1="93.1" y1="146.9" x2="51.8" y2="146.9"/>
			<line class="st0" x1="93.1" y1="166.4" x2="51.8" y2="166.4"/>
			<line class="st0" x1="93.1" y1="186" x2="51.8" y2="186"/>
			<line class="st0" x1="93.1" y1="205.5" x2="51.8" y2="205.5"/>
		</g>
	</g>
	<rect x="93.1" y="49.1" class="st1" width="122.2" height="195.5"/>
	<line class="st0" x1="117.5" y1="73.5" x2="190.8" y2="73.5"/>
	<line class="st0" x1="117.5" y1="98" x2="190.8" y2="98"/>
	<line class="st0" x1="117.5" y1="122.4" x2="190.8" y2="122.4"/>
	<line class="st0" x1="117.5" y1="146.9" x2="190.8" y2="146.9"/>
	<line class="st0" x1="117.5" y1="171.3" x2="190.8" y2="171.3"/>
	<line class="st0" x1="117.5" y1="195.7" x2="190.8" y2="195.7"/>
	<polyline class="st0" points="166.4,244.6 166.4,220.2 141.9,220.2 141.9,244.6 	"/>
	<path class="st0" d="M296.1,244.6"/>
	<path class="st0" d="M2.8,244.6"/>
	<path class="st0" d="M296.1,244.6"/>
	<path class="st0" d="M2.8,244.6"/>
	<line class="st0" x1="2.8" y1="244.6" x2="296.1" y2="244.6"/>
</g>
</svg>
