<?xml version="1.0" encoding="utf-8"?>
<!-- Generator: Adobe Illustrator 23.0.1, SVG Export Plug-In . SVG Version: 6.00 Build 0)  -->
<svg version="1.1" id="Layer_1" xmlns="http://www.w3.org/2000/svg" xmlns:xlink="http://www.w3.org/1999/xlink" x="0px" y="0px"
	 viewBox="0 0 300 300" style="enable-background:new 0 0 300 300;" xml:space="preserve">
<style type="text/css">
	.st0{fill:#41CECA;}
</style>
<g>
	<g>
		<g>
			<path class="st0" d="M208.7,184.4h38.4C234.4,213,205.7,233,172.5,233c-23.6,0-44.8-10.1-59.8-26.1c10.7,7.3,23.7,11.5,37.6,11.5
				C175.3,218.4,197.2,204.7,208.7,184.4z"/>
			<path class="st0" d="M91.9,118.3c11.5-20.3,33.3-34,58.4-34c13.9,0,26.9,4.2,37.6,11.5c-14.9-16-36.2-26.1-59.8-26.1
				c-33.3,0-61.9,20-74.6,48.6H91.9z"/>
		</g>
		<g>
			<g>
				<path class="st0" d="M149.9,126.7h9.3l-20.5,49.5h-7.6l-20.5-49.5h9.6l14.8,37.8L149.9,126.7z"/>
				<path class="st0" d="M186.4,176.8c-15.1,0-25.7-11.5-25.7-25.4c0-13.9,10.7-25.5,25.8-25.5c15.1,0,25.7,11.5,25.7,25.4
					C212.2,165.2,201.5,176.8,186.4,176.8z M186.4,133.8c-9.8,0-16.6,7.8-16.6,17.4c0,9.6,7,17.6,16.7,17.6
					c9.8,0,16.6-7.8,16.6-17.4C203.1,141.8,196.2,133.8,186.4,133.8z"/>
				<path class="st0" d="M287.6,126.7h9.3l-20.5,49.5h-7.6l-20.5-49.5h9.6l14.8,37.8L287.6,126.7z"/>
				<polygon class="st0" points="254.3,168.1 229.6,168.1 229.6,126.7 220.9,126.7 220.9,175.9 257.6,175.9 				"/>
			</g>
			<path class="st0" d="M32.1,157.5c6.9-1.9,11.7-6.8,11.7-15c0-9.6-7-15.6-18.3-15.6H3.6v49.2h8.6v-41.3h12.6
				c6.4,0,10.2,2.8,10.2,8.2c0,5.1-3.9,8.3-10.1,8.3h-7.2l17.5,24.8h10.2L32.1,157.5z"/>
			<polygon class="st0" points="93,155.2 113.9,155.2 110.7,147.5 89.8,147.5 			"/>
			<polygon class="st0" points="61.5,168.4 61.5,155.2 84.5,155.2 81.3,147.5 61.5,147.5 61.5,134.7 89.4,134.7 89.4,126.9 
				52.9,126.9 52.9,176.1 89.7,176.1 89.7,168.4 			"/>
		</g>
		<g>
			<path class="st0" d="M211,118.3h36.1c-13.8-40.7-52.3-70-97.6-70c-28.3,0-53.9,11.4-72.5,29.9c14.5-10.1,32.1-16.1,51.1-16.1
				C165.7,62.1,197.9,85.3,211,118.3z"/>
			<path class="st0" d="M89.6,184.4c13.1,32.9,45.3,56.2,82.9,56.2c19,0,36.6-6,51.1-16.1c-18.6,18.5-44.3,29.9-72.5,29.9
				c-45.3,0-83.8-29.4-97.6-70H89.6z"/>
		</g>
	</g>
</g>
</svg>
